<svg width="300" height="300" viewBox="0 0 300 300" version="1.1" xmlns="http://www.w3.org/2000/svg" xmlns:xlink="http://www.w3.org/1999/xlink">
<title>Union</title>
<desc>Created using Figma</desc>
<g id="Canvas" transform="translate(-1395 -855)">
<g id="Union">
<use xlink:href="#path0_fill" transform="translate(1395 855)" fill="#152D4E"/>
</g>
</g>
<defs>
<path id="path0_fill" fill-rule="evenodd" d="M 132.34 14.125L 133.867 0L 166.133 0L 167.67 14.2144C 179.879 15.8143 191.583 19.0182 202.564 23.6078L 211.029 12.0298L 238.971 28.1626L 233.151 41.3395C 242.73 48.6877 251.312 57.27 258.66 66.8486L 271.838 61.0286L 287.97 88.9713L 276.392 97.4359C 280.982 108.417 284.186 120.121 285.786 132.331L 300 133.867L 300 166.133L 285.875 167.66C 284.331 179.925 281.17 191.687 276.611 202.724L 287.97 211.029L 271.838 238.971L 259.052 233.324C 251.676 243.034 243.036 251.732 233.378 259.173L 238.971 271.837L 211.029 287.97L 202.948 276.917C 191.833 281.603 179.973 284.867 167.594 286.482L 166.133 300L 133.867 300L 132.416 286.571C 119.98 285.013 108.062 281.792 96.8909 277.138L 88.9713 287.97L 61.0286 271.838L 66.4486 259.566C 56.6589 252.097 47.9033 243.341 40.434 233.551L 28.1626 238.971L 12.0299 211.029L 22.8623 203.109C 18.208 191.938 14.9871 180.02 13.4291 167.584L 0 166.133L 0 133.867L 13.5181 132.406C 15.1332 120.027 18.3972 108.166 23.0825 97.0518L 12.0299 88.9714L 28.1626 61.0286L 40.827 66.6222C 48.2679 56.9641 56.9657 48.3243 66.6755 40.9476L 61.0287 28.1625L 88.9714 12.0298L 97.276 23.389C 108.313 18.8301 120.075 15.6685 132.34 14.125ZM 251.957 150.343C 251.957 206.842 206.155 252.643 149.657 252.643C 93.1581 252.643 47.3569 206.842 47.3569 150.343C 47.3569 93.8446 93.1581 48.0435 149.657 48.0435C 206.155 48.0435 251.957 93.8446 251.957 150.343Z"/>
</defs>
</svg>
