<svg width="240" height="240" viewBox="0 0 240 240" version="1.1" xmlns="http://www.w3.org/2000/svg" xmlns:xlink="http://www.w3.org/1999/xlink">
<title>Union</title>
<desc>Created using Figma</desc>
<g id="Canvas" transform="translate(-1634 -1049)">
<g id="Union">
<use xlink:href="#path0_fill" transform="translate(1634 1049)" fill="#DB950F"/>
</g>
</g>
<defs>
<path id="path0_fill" fill-rule="evenodd" d="M 105.872 11.3L 107.094 0L 132.906 0L 134.135 11.3716C 143.903 12.6515 153.266 15.2147 162.051 18.8864L 168.823 9.62402L 191.177 22.5302L 186.521 33.0718C 194.184 38.9502 201.05 45.816 206.928 53.4789L 217.47 48.8229L 230.376 71.177L 221.114 77.9487C 224.785 86.7335 227.348 96.097 228.628 105.864L 240 107.094L 240 132.906L 228.7 134.128C 227.465 143.94 224.936 153.349 221.289 162.179L 230.376 168.823L 217.47 191.177L 207.242 186.66C 201.34 194.427 194.428 201.386 186.702 207.338L 191.177 217.47L 168.823 230.376L 162.358 221.534C 153.467 225.282 143.978 227.893 134.075 229.186L 132.906 240L 107.094 240L 105.932 229.257C 95.9841 228.01 86.4496 225.434 77.5125 221.71L 71.1769 230.376L 48.8228 217.47L 53.1587 207.653C 45.327 201.677 38.3225 194.673 32.347 186.841L 22.5299 191.177L 9.62378 168.823L 18.2898 162.487C 14.5663 153.55 11.9895 144.016 10.7432 134.068L 0 132.906L 0 107.094L 10.8145 105.925C 12.1066 96.0216 14.7178 86.5332 18.4659 77.6415L 9.6239 71.1771L 22.53 48.8229L 32.6617 53.2977C 38.6145 45.5713 45.5726 38.6594 53.3405 32.7581L 48.8229 22.5299L 71.177 9.62378L 77.8208 18.7112C 86.6508 15.064 96.0599 12.5349 105.872 11.3ZM 194.565 120.275C 194.565 161.608 161.058 195.115 119.725 195.115C 78.3925 195.115 44.8855 161.608 44.8855 120.275C 44.8855 78.9418 78.3925 45.4348 119.725 45.4348C 161.058 45.4348 194.565 78.9418 194.565 120.275Z"/>
</defs>
</svg>
